# AST/ASF file generated using VICON BodyLanguage
# -----------------------------------------------
:version 1.10
:name VICON
:units
  mass 1.0
  length 0.45
  angle deg
:documentation
   .ast/.asf automatically generated from VICON data using
   VICON BodyBuilder and BodyLanguage model FoxedUp or BRILLIANT.MOD
:root
   order TX TY TZ RX RY RZ
   axis XYZ
   position 0 0 0  
   orientation 0 0 0 
:bonedata
  begin
     id 1 
     name lhipjoint
     direction 0.561001 -0.76473 0.316963 
     length 2.4722 
     axis 0 0 0  XYZ
  end
  begin
     id 2 
     name lfemur
     direction 0.34202 -0.939693 0  
     length 7.59403  
     axis 0 0 20  XYZ
    dof rx ry rz
    limits (-160.0 20.0)
           (-70.0 70.0)
           (-60.0 70.0)
  end
  begin
     id 3 
     name ltibia
     direction 0.34202 -0.939693 0   
     length 7.89655   
     axis 0 0 20   XYZ
    dof rx
    limits (-10.0 170.0)
  end
  begin
     id 4 
     name lfoot
     direction 0.061296 -0.168409 0.98381   
     length 2.73287   
     axis -90 7.62852e-016 20   XYZ
    dof rx rz
    limits (-45.0 90.0)
           (-70.0 20.0)
  end
  begin
     id 5 
     name ltoes
     direction 1.53547e-011 -4.21984e-011 1   
     length 1.37057   
     axis -90 7.62852e-016 20   XYZ
    dof rx
    limits (-90.0 20.0)
  end
  begin
     id 6 
     name rhipjoint
     direction -0.559611 -0.765599 0.317323   
     length 2.46939  
     axis 0 0 0  XYZ 
  end
  begin
     id 7 
     name rfemur
     direction -0.34202 -0.939693 0   
     length 7.53712   
     axis 0 0 -20   XYZ
    dof rx ry rz
    limits (-160.0 20.0)
           (-70.0 70.0)
           (-70.0 60.0)
  end
  begin
     id 8 
     name rtibia
     direction -0.34202 -0.939693 0   
     length 8.12549   
     axis 0 0 -20   XYZ
    dof rx
    limits (-10.0 170.0)
 end
 begin
     id 9 
     name rfoot
     direction -0.066984 -0.184037 0.980634   
     length 2.67541  
     axis -90 -7.62852e-016 -20   XYZ
    dof rx rz
    limits (-45.0 90.0)
           (-20.0 70.0)
  end
  begin
     id 10 
     name rtoes
     direction -1.53549e-011 -4.21786e-011 1   
     length 1.34085   
     axis -90 -7.62852e-016 -20   XYZ
    dof rx
    limits (-90.0 20.0)
  end
  begin
     id 11 
     name lowerback
     direction -0.0522728 0.992594 -0.109658   
     length 2.05633   
     axis 0 0 0   XYZ
    dof rx ry rz
    limits (-20.0 45.0)
           (-30.0 30.0)
           (-30.0 30.0)
  end
  begin
     id 12 
     name upperback
     direction 0.00589338 0.999977 0.00335704   
     length 2.05845   
     axis 0 0 0   XYZ
    dof rx ry rz
    limits (-20.0 45.0)
           (-30.0 30.0)
           (-30.0 30.0)
  end
  begin
     id 13 
     name thorax
     direction 0.0292928 0.998059 0.0549487   
     length 2.09281   
     axis 0 0 0   XYZ
    dof rx ry rz
    limits (-20.0 45.0)
           (-30.0 30.0)
           (-30.0 30.0)
  end
  begin
     id 14 
     name lowerneck
     direction 0.0356368 0.980775 0.191858   
     length 1.84767   
     axis 0 0 0   XYZ
    dof rx ry rz
    limits (-20.0 45.0)
           (-30.0 30.0)
           (-30.0 30.0)
  end
  begin
     id 15 
     name upperneck
     direction -0.0227605 0.98931 -0.14404   
     length 1.89582   
     axis 0 0 0   XYZ
    dof rx ry rz
    limits (-20.0 45.0)
           (-30.0 30.0)
           (-30.0 30.0)
  end
  begin
     id 16
     name head
     direction -0.00932985 0.997511 -0.0698904  
     length 1.90213  
     axis 0 0 0   XYZ
    dof rx ry rz
    limits (-20.0 45.0)
           (-30.0 30.0)
           (-30.0 30.0)
  end
  begin
     id 17 
     name lclavicle
     direction 0.873442 0.479511 0.0846686  
     length 3.41193  
     axis 0 0 0   XYZ
    dof ry rz
    limits (-20.0 10.0)
           (0.0 20.0)
  end
  begin
     id 18 
     name lhumerus
     direction 1 -4.4897e-011 -5.62117e-018   
     length 5.59864   
     axis 180 -30 -90   XYZ
    dof rx ry rz
    limits (-60.0 90.0)
           (-90.0 90.0)
           (-90.0 90.0)
  end
  begin
     id 19
     name lradius
     direction 1 -4.48966e-011 -6.26295e-027   
     length 3.59542   
     axis 180 -30 -90   XYZ
    dof rx
    limits (-10.0 170.0)
  end
  begin
     id 20
     name lwrist
     direction 1 -4.48947e-011 -1.74096e-026   
     length 1.79771   
     axis 1.04567e-014 90 90   XYZ
    dof ry
    limits (-180.0 0.0)
 end
  begin
     id 21 
     name lhand
     direction 1 -4.49085e-011 -3.48469e-026   
     length 0.572014   
     axis 2.22196e-014 90 90   XYZ
    dof rx rz
    limits (-90.0 90.0)
           (-45.0 45.0)
  end
  begin
     id 22 
     name lfingers
     direction 1 -4.48884e-011 -6.96135e-026   
     length 0.461173   
     axis 4.44383e-014 90 90   XYZ
    dof rx
    limits (0.0 90.0)
  end
  begin
     id 23
     name lthumb
     direction 0.707107 -6.34976e-011 0.707107   
     length 0.662154   
     axis -90 45 -5.4397e-014   XYZ
    dof rx rz
    limits (-45.0 45.0)
           (-45.0 45.0)
  end
  begin
     id 24 
     name rclavicle
     direction -0.890242 0.443271 0.104786   
     length 3.46753  
     axis 0 0 0   XYZ 
    dof ry rz
    limits (-10.0 20.0)
           (-20.0 0.0)
  end
  begin
     id 25 
     name rhumerus
     direction -1 -4.48963e-011 -5.41723e-018  
     length 5.8094   
     axis 180 30 90   XYZ
    dof rx ry rz
    limits (-90.0 60.0)
           (-90.0 90.0)
           (-90.0 90.0)
  end
  begin
     id 26 
     name rradius
     direction -1 -4.48958e-011 -6.51059e-027   
     length 3.66953   
     axis 180 30 90   XYZ
    dof rx
    limits (-10.0 170.0)
  end
  begin
     id 27 
     name rwrist
     direction -1 -4.48975e-011 -1.74124e-026   
     length 1.83476   
     axis 1.04567e-014 -90 -90   XYZ
    dof ry
    limits (-180.0 0.0)
  end
  begin
     id 28
     name rhand
     direction -1 -4.49013e-011 -3.48326e-026   
     length 0.57843   
     axis 2.22196e-014 -90 -90   XYZ
    dof rx rz
    limits (-90.0 90.0)
           (-45.0 45.0)
  end
  begin
     id 29
     name rfingers
     direction -1 -4.49023e-011 -6.9669e-026   
     length 0.466345   
     axis 4.44383e-014 -90 -90   XYZ
    dof rx
    limits (0.0 90.0)
  end
  begin
     id 30
     name rthumb
     direction -0.707107 -6.34926e-011 0.707107   
     length 0.669581   
     axis -90 -45 5.4397e-014   XYZ
    dof rx rz
    limits (-45.0 45.0)
           (-45.0 45.0)
  end
:hierarchy
  begin
    root lhipjoint rhipjoint lowerback
    lhipjoint lfemur
    lfemur ltibia
    ltibia lfoot
    lfoot ltoes
    rhipjoint rfemur
    rfemur rtibia
    rtibia rfoot
    rfoot rtoes
    lowerback upperback
    upperback thorax
    thorax lowerneck lclavicle rclavicle
    lowerneck upperneck
    upperneck head
    lclavicle lhumerus
    lhumerus lradius
    lradius lwrist
    lwrist lhand lthumb
    lhand lfingers
    rclavicle rhumerus
    rhumerus rradius
    rradius rwrist
    rwrist rhand rthumb
    rhand rfingers
  end

#!OML:ASF H:\SkateBoarding\Project 1\Capture day 1\Session 1\Skater.ASF
:FULLY-SPECIFIED
:DEGREES
212
root 7.05412 15.8567 -7.19555 19.2216 22.27 1.43952
lowerback 14.405 -0.488724 -7.30473
upperback -0.940821 -1.96702 -0.668456
thorax -8.91915 -0.609897 3.8378
lowerneck -23.6555 -3.07346 -4.05251
upperneck 33.9159 -5.27407 6.58065
head 16.5024 -1.68071 2.50911
rclavicle 5.52621e-014 -2.38542e-014
rhumerus 26.2802 23.6008 -27.8181
rradius 66.5119
rwrist -12.6328
rhand -40.7927 -8.46275
rfingers 7.12502
rthumb -13.7318 -37.9896
lclavicle 5.52621e-014 -2.38542e-014
lhumerus 34.046 0.0668903 37.3782
lradius 80.5012
lwrist 10.7708
lhand -48.4282 -6.00834
lfingers 7.12502
lthumb -21.0798 22.8659
rfemur -83.2382 -5.77168 12.0879
rtibia 86.7311
rfoot -13.6293 19.4772
rtoes -13.866
lfemur 31.5272 -14.698 -6.48934
ltibia 8.5875e-014
lfoot -17.2915 23.0134
ltoes 18.6354
213
root 6.98919 15.9709 -6.73286 19.3613 22.7611 1.7913
lowerback 14.4104 -0.699663 -7.75973
upperback -1.03369 -2.35443 -0.938876
thorax -8.97533 -0.775711 3.88398
lowerneck -23.5883 -2.97023 -4.21437
upperneck 33.9604 -5.17023 6.88529
head 16.5197 -1.61641 2.69709
rclavicle 2.38542e-015 2.8625e-014
rhumerus 25.728 23.9909 -27.4728
rradius 68.6103
rwrist -12.4504
rhand -41.1475 -8.19833
rfingers 7.12502
rthumb -14.0738 -37.7018
lclavicle 2.38542e-015 2.8625e-014
lhumerus 34.2452 -0.0242002 37.5855
lradius 79.5327
lwrist 10.1522
lhand -48.5708 -6.18978
lfingers 7.12502
lthumb -21.2168 22.6691
rfemur -82.2886 -5.58994 12.1202
rtibia 86.3077
rfoot -14.8431 19.1215
rtoes -14.5819
lfemur 31.6828 -14.8258 -6.64557
ltibia -7.63333e-014
lfoot -16.7514 25.8783
ltoes 16.9499
214
root 6.91854 16.0919 -6.27334 19.4456 23.3586 2.12729
lowerback 14.494 -0.861048 -8.17485
upperback -1.05636 -2.67485 -1.23327
thorax -9.00805 -0.913831 3.86842
lowerneck -23.5387 -2.94433 -4.35381
upperneck 33.9555 -5.20756 7.23976
head 16.5301 -1.59935 2.87226
rclavicle 1.59028e-015 -3.26007e-014
rhumerus 24.8076 24.1695 -27.338
rradius 70.7271
rwrist -12.2604
rhand -41.5141 -7.91841
rfingers 7.12502
rthumb -14.427 -37.397
lclavicle 1.59028e-015 -3.26007e-014
lhumerus 34.5191 -0.292847 37.9359
lradius 78.4587
lwrist 9.7134
lhand -48.5802 -6.30091
lfingers 7.12502
lthumb -21.2258 22.5569
rfemur -81.1856 -5.39573 12.185
rtibia 85.8369
rfoot -16.1146 18.7058
rtoes -15.2502
lfemur 31.7762 -15.047 -6.78377
ltibia 0
lfoot -14.9741 28.4691
ltoes 14.8195
215
root 6.8448 16.2197 -5.81662 19.4603 24.0512 2.42639
lowerback 14.6511 -0.970565 -8.50512
upperback -1.0083 -2.91708 -1.55289
thorax -9.0186 -1.02141 3.76279
lowerneck -23.5071 -2.99048 -4.46387
upperneck 33.9118 -5.37287 7.62207
head 16.538 -1.62633 3.02664
rclavicle -9.93923e-015 -1.74931e-014
rhumerus 23.5226 24.1506 -27.4177
rradius 72.8366
rwrist -12.1048
rhand -41.8984 -7.59963
rfingers 7.12502
rthumb -14.7973 -37.0513
lclavicle -9.93923e-015 -1.74931e-014
lhumerus 34.867 -0.745632 38.4126
lradius 77.2918
lwrist 9.45398
lhand -48.486 -6.39965
lfingers 7.12502
lthumb -21.1354 22.4684
rfemur -79.9217 -5.19548 12.3063
rtibia 85.3012
rfoot -17.4257 18.2314
rtoes -15.8787
lfemur 31.8247 -15.3458 -6.89357
ltibia -3.18055e-015
lfoot -12.0152 30.627
ltoes 11.9927
216
root 6.7702 16.353 -5.36259 19.3987 24.8266 2.67133
lowerback 14.8745 -1.03187 -8.72242
upperback -0.901323 -3.08058 -1.893
thorax -9.01808 -1.09881 3.55693
lowerneck -23.4904 -3.09151 -4.53025
upperneck 33.8529 -5.6346 7.99846
head 16.5512 -1.68733 3.15005
rclavicle -5.64548e-014 -2.3059e-014
rhumerus 21.9059 23.98 -27.688
rradius 74.9143
rwrist -12.0145
rhand -42.3284 -7.25047
rfingers 7.12502
rthumb -15.2116 -36.6713
lclavicle -5.64548e-014 -2.3059e-014
lhumerus 35.2591 -1.38616 38.9883
lradius 76.0465
lwrist 9.3515
lhand -48.3105 -6.53048
lfingers 7.12502
lthumb -20.9667 22.3563
rfemur -78.509 -4.99979 12.5071
rtibia 84.6916
rfoot -18.7559 17.7027
rtoes -16.4867
lfemur 31.8497 -15.7038 -6.97059
ltibia 2.22639e-014
lfoot -8.43803 32.0568
ltoes 8.6902
217
root 6.69673 16.491 -4.91088 19.2628 25.6728 2.84772
lowerback 15.1547 -1.06215 -8.8178
upperback -0.753474 -3.18478 -2.23349
thorax -9.01823 -1.15425 3.27191
lowerneck -23.4762 -3.22117 -4.54154
upperneck 33.7977 -5.93926 8.31623
head 16.5681 -1.76675 3.22866
rclavicle -4.6118e-014 4.92986e-014
rhumerus 20.0437 23.7223 -28.0988
rradius 76.9388
rwrist -12.0093
rhand -42.8121 -6.86504
rfingers 7.12502
rthumb -15.6774 -36.2499
lclavicle -4.6118e-014 4.92986e-014
lhumerus 35.6274 -2.18677 39.6397
lradius 74.7318
lwrist 9.34801
lhand -48.0598 -6.6978
lfingers 7.12502
lthumb -20.7259 22.2154
rfemur -76.9637 -4.81428 12.7999
rtibia 83.9974
rfoot -20.0794 17.1312
rtoes -17.0508
lfemur 24.8688 -16.1417 -7.04329
ltibia 13.7559
lfoot -5.8636 26.0068
ltoes 5.2003
218
root 6.62579 16.6316 -4.46166 19.0557 26.5761 2.94184
lowerback 15.4791 -1.07735 -8.80193
upperback -0.582496 -3.24994 -2.54831
thorax -9.02693 -1.19542 2.94596
lowerneck -23.4684 -3.35383 -4.49041
upperneck 33.7745 -6.23598 8.52978
head 16.5955 -1.84898 3.2525
rclavicle -4.96962e-014 2.8625e-014
rhumerus 18.0418 23.4371 -28.5919
rradius 78.8747
rwrist -12.0915
rhand -43.3368 -6.43249
rfingers 7.12502
rthumb -16.1826 -35.777
lclavicle -4.96962e-014 2.8625e-014
lhumerus 35.9062 -3.11342 40.347
lradius 73.3515
lwrist 9.40483
lhand -47.7879 -6.93509
lfingers 7.12502
lthumb -20.4646 22.0064
rfemur -75.3155 -4.64471 13.1963
rtibia 83.2191
rfoot -21.3712 16.5276
rtoes -17.5699
lfemur 19.786 -14.7772 -5.92437
ltibia 23.1556
lfoot -2.54791 21.2447
ltoes 2.04018
219
root 6.5579 16.7738 -4.0149 18.7828 27.5258 2.93556
lowerback 15.8387 -1.09315 -8.69269
upperback -0.409888 -3.29786 -2.81014
thorax -9.05734 -1.23014 2.6231
lowerneck -23.4574 -3.47347 -4.39693
upperneck 33.8045 -6.49044 8.6293
head 16.6371 -1.92391 3.22887
rclavicle 4.53229e-014 -9.54166e-014
rhumerus 15.9861 23.189 -29.117
rradius 80.7042
rwrist -12.2374
rhand -43.8949 -5.97609
rfingers 7.12502
rthumb -16.7201 -35.2761
lclavicle 4.53229e-014 -9.54166e-014
lhumerus 36.0316 -4.131 41.0988
lradius 71.9156
lwrist 9.45632
lhand -47.4973 -7.20509
lfingers 7.12502
lthumb -20.1853 21.7662
rfemur -73.5922 -4.49038 13.7117
rtibia 82.3542
rfoot -22.6168 15.9083
rtoes -18.0236
lfemur 15.694 -13.5103 -4.85846
ltibia 30.6377
lfoot -0.699206 17.0615
ltoes -0.684324
220
root 6.49305 16.9167 -3.57058 18.4472 28.5111 2.81426
lowerback 16.2283 -1.12067 -8.50105
upperback -0.253518 -3.34459 -3.0083
thorax -9.12324 -1.26448 2.3244
lowerneck -23.4455 -3.57062 -4.27546
upperneck 33.9089 -6.68872 8.62651
head 16.7033 -1.98554 3.16954
rclavicle -4.13472e-014 -1.74931e-014
rhumerus 13.9271 23.0259 -29.6507
rradius 82.424
rwrist -12.4296
rhand -44.4632 -5.50619
rfingers 7.12502
rthumb -17.267 -34.7591
lclavicle -4.13472e-014 -1.74931e-014
lhumerus 35.9784 -5.2094 41.877
lradius 70.4297
lwrist 9.47401
lhand -47.2012 -7.48437
lfingers 7.12502
lthumb -19.9007 21.5167
rfemur -71.811 -4.3408 14.3528
rtibia 81.3358
rfoot -23.7616 15.2325
rtoes -18.419
lfemur 12.0977 -12.2999 -3.82114
ltibia 37.0909
lfoot -0.0704821 13.3149
ltoes -2.89819
221
root 6.43104 17.0589 -3.12849 18.052 29.5208 2.56668
lowerback 16.6309 -1.17325 -8.25641
upperback -0.119202 -3.40925 -3.12275
thorax -9.21672 -1.30622 2.09179
lowerneck -23.45 -3.63527 -4.16178
upperneck 34.0957 -6.81126 8.54791
head 16.8034 -2.0263 3.09721
rclavicle -5.32743e-014 -9.54166e-015
rhumerus 11.9333 22.9807 -30.1701
rradius 84.0283
rwrist -12.6233
rhand -45.0177 -5.03783
rfingers 7.12502
rthumb -17.8007 -34.2431
lclavicle -5.32743e-014 -9.54166e-015
lhumerus 35.712 -6.29245 42.6744
lradius 68.9092
lwrist 9.43286
lhand -46.9016 -7.74394
lfingers 7.12502
lthumb -19.6127 21.2868
rfemur -70.005 -4.18216 15.1219
rtibia 80.2372
rfoot -24.8463 14.5473
rtoes -18.7281
lfemur 8.64882 -11.0978 -2.79704
ltibia 43.1648
lfoot -0.428314 9.83289
ltoes -4.7169
222
root 6.37148 17.2625 -2.66052 17.5969 30.5486 2.18936
lowerback 17.0441 -1.2551 -7.97125
upperback -0.0146095 -3.49971 -3.15784
thorax -9.34413 -1.35842 1.92978
lowerneck -23.4693 -3.66465 -4.05886
upperneck 34.3593 -6.86338 8.42273
head 16.9375 -2.04475 3.02406
rclavicle -2.70347e-014 -6.36111e-015
rhumerus 9.99585 23.0687 -30.6939
rradius 85.5309
rwrist -12.8025
rhand -45.5265 -4.5333
rfingers 7.12502
rthumb -18.2903 -33.6934
lclavicle -2.70347e-014 -6.36111e-015
lhumerus 35.2342 -7.36743 43.4804
lradius 67.3753
lwrist 9.33859
lhand -46.607 -7.98975
lfingers 7.12502
lthumb -19.3294 21.0696
rfemur -67.739 -3.91932 16.0594
rtibia 78.7776
rfoot -26.0748 13.8807
rtoes -18.9827
lfemur 5.36491 -9.87761 -1.83126
ltibia 48.7261
lfoot -1.50226 6.79221
ltoes -6.34996
